<svg width="120" height="120" viewBox="0 0 120 120" fill="none" xmlns="http://www.w3.org/2000/svg">
  <!-- Desk -->
  <rect x="20" y="80" width="80" height="8" rx="2" fill="#000000"/>
  <rect x="15" y="88" width="90" height="4" rx="2" fill="#374151"/>

  <!-- Person silhouette at desk -->
  <circle cx="60" cy="50" r="12" fill="#000000"/>
  <rect x="48" y="62" width="24" height="18" rx="2" fill="#000000"/>
  <rect x="52" y="80" width="6" height="12" rx="1" fill="#000000"/>
  <rect x="62" y="80" width="6" height="12" rx="1" fill="#000000"/>

  <!-- Floating hourglasses -->
  <g transform="translate(25,25)">
    <path d="M5 2 L5 8 L3 10 L7 10 L5 8 L5 12" stroke="#000000" stroke-width="1.5" fill="none"/>
    <circle cx="5" cy="4" r="1" fill="#000000"/>
    <circle cx="5" cy="10" r="1" fill="#000000"/>
  </g>
  <g transform="translate(85,20)">
    <path d="M5 2 L5 8 L3 10 L7 10 L5 8 L5 12" stroke="#000000" stroke-width="1.5" fill="none"/>
    <circle cx="5" cy="4" r="1" fill="#000000"/>
    <circle cx="5" cy="10" r="1" fill="#000000"/>
  </g>

  <!-- Broken magnifying glass -->
  <circle cx="35" cy="35" r="8" stroke="#000000" stroke-width="2" fill="none"/>
  <line x1="41" y1="41" x2="45" y2="45" stroke="#000000" stroke-width="2"/>
  <line x1="43" y1="29" x2="47" y2="33" stroke="#000000" stroke-width="2"/>
  <path d="M27 27 L31 31" stroke="#000000" stroke-width="2"/>
  <path d="M39 23 L43 27" stroke="#000000" stroke-width="2"/>

  <!-- Piles of papers -->
  <rect x="15" y="65" width="8" height="12" rx="1" fill="#374151" stroke="#000000" stroke-width="0.5"/>
  <rect x="18" y="62" width="8" height="12" rx="1" fill="#374151" stroke="#000000" stroke-width="0.5"/>
  <rect x="21" y="59" width="8" height="12" rx="1" fill="#374151" stroke="#000000" stroke-width="0.5"/>

  <rect x="85" y="70" width="8" height="12" rx="1" fill="#374151" stroke="#000000" stroke-width="0.5"/>
  <rect x="88" y="67" width="8" height="12" rx="1" fill="#374151" stroke="#000000" stroke-width="0.5"/>
  <rect x="91" y="64" width="8" height="12" rx="1" fill="#374151" stroke="#000000" stroke-width="0.5"/>

  <!-- Floating screens -->
  <rect x="75" y="35" width="12" height="8" rx="1" fill="#FFFFFF" stroke="#000000" stroke-width="0.5"/>
  <rect x="77" y="37" width="8" height="4" rx="0.5" fill="#000000"/>
  <rect x="10" y="40" width="12" height="8" rx="1" fill="#FFFFFF" stroke="#000000" stroke-width="0.5"/>
  <rect x="12" y="42" width="8" height="4" rx="0.5" fill="#000000"/>
</svg>