<svg width="120" height="120" viewBox="0 0 120 120" fill="none" xmlns="http://www.w3.org/2000/svg">
  <!-- Lightbulb with wings flying away -->
  <g transform="translate(40,30)">
    <!-- Lightbulb -->
    <path d="M15 5 C15 2 13 0 10 0 C7 0 5 2 5 5 L5 12 C3 14 2 16 2 18 C2 22 5 25 9 25 C13 25 16 22 16 18 C16 16 15 14 13 12 Z" fill="#000000"/>
    <rect x="8" y="25" width="4" height="6" fill="#000000"/>
    <circle cx="10" cy="31" r="2" fill="#000000"/>
    <!-- Filament -->
    <path d="M8 5 L12 5 L11 8 L9 8 Z" fill="#FFFFFF"/>
    <!-- Wings -->
    <path d="M15 8 L20 5 L18 10 Z" fill="#000000"/>
    <path d="M5 8 L0 5 L2 10 Z" fill="#000000"/>
    <!-- Motion lines -->
    <path d="M22 6 L25 6" stroke="#000000" stroke-width="1"/>
    <path d="M-2 6 L-5 6" stroke="#000000" stroke-width="1"/>
  </g>

  <!-- Calendar pages turning -->
  <g transform="translate(70,20)">
    <!-- Calendar base -->
    <rect x="0" y="0" width="15" height="18" rx="2" fill="#000000" stroke="#374151" stroke-width="0.5"/>
    <line x1="3" y1="6" x2="12" y2="6" stroke="#FFFFFF" stroke-width="1"/>
    <line x1="3" y1="10" x2="12" y2="10" stroke="#FFFFFF" stroke-width="1"/>
    <line x1="3" y1="14" x2="12" y2="14" stroke="#FFFFFF" stroke-width="1"/>
    <!-- Turning pages -->
    <path d="M15 2 L18 0 L20 5 L17 7 Z" fill="#374151"/>
  </g>

  <!-- Closing door -->
  <g transform="translate(15,60)">
    <!-- Door frame -->
    <rect x="0" y="0" width="25" height="35" rx="2" fill="none" stroke="#000000" stroke-width="2"/>
    <!-- Door -->
    <rect x="2" y="2" width="21" height="31" rx="2" fill="#374151"/>
    <!-- Door knob -->
    <circle cx="20" cy="17" r="2" fill="#000000"/>
    <!-- Closing motion -->
    <path d="M23 15 L26 12" stroke="#000000" stroke-width="2"/>
    <path d="M23 19 L26 22" stroke="#000000" stroke-width="2"/>
  </g>

  <!-- Time slipping away elements -->
  <!-- Clock -->
  <circle cx="85" cy="75" r="8" fill="none" stroke="#000000" stroke-width="1.5"/>
  <line x1="85" y1="75" x2="85" y2="71" stroke="#000000" stroke-width="1"/>
  <line x1="85" y1="75" x2="89" y2="75" stroke="#000000" stroke-width="1"/>
  <!-- Clock hands moving -->
  <line x1="85" y1="75" x2="87" y2="72" stroke="#000000" stroke-width="1"/>
  <line x1="85" y1="75" x2="85" y2="69" stroke="#000000" stroke-width="1"/>

  <!-- Subtle expression - focused/sad face -->
  <g transform="translate(50,85)">
    <circle cx="10" cy="8" r="8" fill="#000000" opacity="0.5"/>
    <circle cx="7" cy="6" r="1" fill="#FFFFFF"/>
    <circle cx="13" cy="6" r="1" fill="#FFFFFF"/>
    <path d="M6 10 Q10 12 14 10" stroke="#FFFFFF" stroke-width="1" fill="none"/>
  </g>

  <!-- Closing door -->
  <g transform="translate(15,60)">
    <!-- Door frame -->
    <rect x="0" y="0" width="25" height="35" rx="2" fill="none" stroke="#6B7280" stroke-width="2"/>
    <!-- Door -->
    <rect x="2" y="2" width="21" height="31" rx="1" fill="#9CA3AF"/>
    <!-- Door knob -->
    <circle cx="20" cy="17" r="2" fill="#6B7280"/>
    <!-- Closing motion -->
    <path d="M23 15 L26 12" stroke="#FACC15" stroke-width="2"/>
    <path d="M23 19 L26 22" stroke="#FACC15" stroke-width="2"/>
  </g>

  <!-- Time slipping away elements -->
  <!-- Clock -->
  <circle cx="85" cy="75" r="8" fill="none" stroke="#6B7280" stroke-width="1.5"/>
  <line x1="85" y1="75" x2="85" y2="71" stroke="#6B7280" stroke-width="1"/>
  <line x1="85" y1="75" x2="89" y2="75" stroke="#6B7280" stroke-width="1"/>
  <!-- Clock hands moving -->
  <path d="M85 75 L87 72" stroke="#FACC15" stroke-width="1"/>
  <path d="M85 75 L85 69" stroke="#FACC15" stroke-width="1"/>

  <!-- Subtle expression - focused/sad face -->
  <g transform="translate(50,85)">
    <circle cx="10" cy="8" r="8" fill="#6B7280" opacity="0.3"/>
    <circle cx="7" cy="6" r="1" fill="#9CA3AF"/>
    <circle cx="13" cy="6" r="1" fill="#9CA3AF"/>
    <path d="M6 10 Q10 12 14 10" stroke="#9CA3AF" stroke-width="1" fill="none"/>
  </g>
</svg>